<svg xmlns="http://www.w3.org/2000/svg" width="28" height="28" viewBox="0 0 28 28">
  <g id="Group_21008" data-name="Group 21008" transform="translate(-29.25)">
    <circle id="Ellipse_4553" data-name="Ellipse 4553" cx="14" cy="14" r="14" transform="translate(29.25)" fill="#8626d5"/>
    <g id="NEWS_done" data-name="NEWS done" transform="translate(7.016 -78.709)">
      <path id="Path_11309" data-name="Path 11309" d="M418.06,158.56V167.8c.674-.233,1.151-1.459,1.254-1.748v-7.494Z" transform="translate(-375.956 -69.276)" fill="#f3e9fb"/>
      <rect id="Rectangle_5511" data-name="Rectangle 5511" width="12.748" height="11.638" transform="translate(29.11 86.89)" fill="#f3e9fb"/>
      <text id="NEWS" transform="translate(32.234 89.709)" fill="#8626d5" font-size="2" font-family="Arial" font-weight="800"><tspan x="0" y="0">NEWS</tspan></text>
      <rect id="Rectangle_5512" data-name="Rectangle 5512" width="11" height="0.452" transform="translate(29.953 91.188)" fill="#8626d5"/>
      <rect id="Rectangle_5513" data-name="Rectangle 5513" width="5.058" height="0.401" transform="translate(29.973 92.524)" fill="#8626d5"/>
      <rect id="Rectangle_5514" data-name="Rectangle 5514" width="5.058" height="0.401" transform="translate(29.973 93.696)" fill="#8626d5"/>
      <rect id="Rectangle_5515" data-name="Rectangle 5515" width="5.058" height="0.401" transform="translate(29.973 94.868)" fill="#8626d5"/>
      <rect id="Rectangle_5516" data-name="Rectangle 5516" width="5.058" height="0.401" transform="translate(29.973 96.04)" fill="#8626d5"/>
      <rect id="Rectangle_5517" data-name="Rectangle 5517" width="5.058" height="0.401" transform="translate(29.973 97.211)" fill="#8626d5"/>
      <rect id="Rectangle_5518" data-name="Rectangle 5518" width="5.058" height="0.401" transform="translate(35.895 92.524)" fill="#8626d5"/>
      <rect id="Rectangle_5519" data-name="Rectangle 5519" width="5.058" height="0.401" transform="translate(35.895 93.696)" fill="#8626d5"/>
      <rect id="Rectangle_5520" data-name="Rectangle 5520" width="5.058" height="0.401" transform="translate(35.895 94.868)" fill="#8626d5"/>
      <rect id="Rectangle_5521" data-name="Rectangle 5521" width="5.058" height="0.401" transform="translate(35.895 96.04)" fill="#8626d5"/>
      <rect id="Rectangle_5522" data-name="Rectangle 5522" width="5.058" height="0.401" transform="translate(35.895 97.212)" fill="#8626d5"/>
    </g>
  </g>
</svg>
