<svg xmlns="http://www.w3.org/2000/svg" width="28" height="28" viewBox="0 0 28 28">
  <g id="ABOUT_US_SVG" data-name="ABOUT US SVG" transform="translate(0.408 0.925)">
    <path id="Path_11259" data-name="Path 11259" d="M13.592-.925a14,14,0,1,1-14,14A14,14,0,0,1,13.592-.925Z" transform="translate(0 0)" fill="#f3e9fb" fill-rule="evenodd"/>
    <g id="about_us_svg-2" data-name="about us svg" transform="translate(6.027 -30.373)">
      <circle id="Ellipse_4561" data-name="Ellipse 4561" cx="2.901" cy="2.901" r="2.901" transform="translate(0.603 37.767)" fill="#d9bcf2"/>
      <path id="Path_11277" data-name="Path 11277" d="M1.5,268.05H5.692a1.5,1.5,0,0,1,1.5,1.5V274.1H0v-4.548A1.5,1.5,0,0,1,1.5,268.05Z" transform="translate(0 -224.274)" fill="#d9bcf2"/>
      <circle id="Ellipse_4562" data-name="Ellipse 4562" cx="2.901" cy="2.901" r="2.901" transform="translate(8.538 37.746)" fill="#d9bcf2"/>
      <path id="Path_11278" data-name="Path 11278" d="M249.733,267.39h4.189a1.5,1.5,0,0,1,1.5,1.5v4.548H248.23v-4.548A1.5,1.5,0,0,1,249.733,267.39Z" transform="translate(-240.295 -223.635)" fill="#d9bcf2"/>
      <circle id="Ellipse_4563" data-name="Ellipse 4563" cx="3.405" cy="3.405" r="3.405" transform="translate(4.223 36.37)" fill="#8626d5"/>
      <path id="Path_11279" data-name="Path 11279" d="M111.443,257.01h5.439a1.5,1.5,0,0,1,1.5,1.5v5.6H109.94v-5.6A1.5,1.5,0,0,1,111.443,257.01Z" transform="translate(-106.425 -213.587)" fill="#8626d5"/>
    </g>
    <path id="Group_1_Traced_-1" data-name="Group 1 (Traced)-1" d="M3.188.242a2.08,2.08,0,0,0-1.3,1.941A2.079,2.079,0,0,0,4.164,4.321c.49-.031,1.036-.253,1.071-.437.012-.063.048-.29.08-.506A3.175,3.175,0,0,1,5.9,2.031c.188-.213.2-.417.03-.773A2.441,2.441,0,0,0,5,.322C4.862.257,4.708.182,4.654.154A2.486,2.486,0,0,0,4.066.086,1.386,1.386,0,0,0,3.188.242ZM12.072.108a2.748,2.748,0,0,0-1.012.614,1.955,1.955,0,0,0-.5.856,1.447,1.447,0,0,0,.245.406,3.082,3.082,0,0,1,.664,1.707l.034.361.275.127a1.528,1.528,0,0,0,.814.129,1.386,1.386,0,0,0,.88-.166,2.109,2.109,0,0,0,1.156-1.332A2.131,2.131,0,0,0,12.549.077,2.908,2.908,0,0,0,12.072.108ZM8.008,1.639A2.355,2.355,0,0,0,6.189,3.221a2.063,2.063,0,0,0-.082.814,1.545,1.545,0,0,0,.2.849A2.3,2.3,0,0,0,7.35,5.945a1.69,1.69,0,0,0,.83.2,2.425,2.425,0,0,0,.756-.037,2.26,2.26,0,0,0,1.62-1.546,2.424,2.424,0,0,0-.049-1.468,2.622,2.622,0,0,0-.835-1.07A2.458,2.458,0,0,0,8.008,1.639ZM2.328,4.92a3.725,3.725,0,0,0-1.039.922,3.9,3.9,0,0,0-.549.915A4.439,4.439,0,0,0,.3,8.849v.672l.244.25A4.456,4.456,0,0,0,3.21,11.111l.318,0,.032-.455A5.784,5.784,0,0,1,4.971,7.125a5,5,0,0,1,.969-.833.294.294,0,0,0,.132-.1c.084-.093.079-.106-.146-.4a2.759,2.759,0,0,1-.464-.853.189.189,0,0,0-.07-.113c-.057-.047-.184.077-.7.68a6.529,6.529,0,0,1-.677.734,7.561,7.561,0,0,1-.688-.757c-.35-.415-.648-.755-.661-.756A3.046,3.046,0,0,0,2.328,4.92Zm10.962.565a7.129,7.129,0,0,1-.7.758,1.788,1.788,0,0,1-.344-.355,9.271,9.271,0,0,0-.907-1.015.8.8,0,0,0-.14.274,2.18,2.18,0,0,1-.465.732c-.133.162-.148.316-.029.316a4.439,4.439,0,0,1,.934.741,5.84,5.84,0,0,1,1.61,3.914v.29h.165a5.753,5.753,0,0,0,1.367-.413,4.511,4.511,0,0,0,1.2-.841l.352-.338V8.813A4.426,4.426,0,0,0,14.9,5.356c-.142-.117-.27-.226-.283-.242a5.1,5.1,0,0,0-.647-.389C13.954,4.725,13.647,5.067,13.29,5.484ZM6.541,6.867a4.447,4.447,0,0,0-1.666,1.9,5.328,5.328,0,0,0-.506,2.614A.825.825,0,0,0,4.576,12a5.046,5.046,0,0,0,2.79,1.514,6.5,6.5,0,0,0,2.772-.176,6.229,6.229,0,0,0,1.353-.687,3.888,3.888,0,0,0,.879-.863,6.549,6.549,0,0,0-.047-1.851,4.679,4.679,0,0,0-2.236-3.164L9.86,6.662l-.2.221c-.112.122-.434.491-.716.82a3.553,3.553,0,0,1-.567.585A17.863,17.863,0,0,1,7.157,6.916a.813.813,0,0,0-.245-.233A1.876,1.876,0,0,0,6.541,6.867Z" transform="translate(5.277 6.241)" fill="#8626d5" fill-rule="evenodd"/>
  </g>
</svg>
