<svg xmlns="http://www.w3.org/2000/svg" width="24" height="24" viewBox="0 0 24 24">
    <path fill="#fff" d="M22.286 2.25H1.709A1.722 1.722 0 0 0 0 3.98v20.54a1.722 1.722 0 0 0 1.709 1.73h20.577A1.726 1.726 0 0 0 24 24.52V3.98a1.726 1.726 0 0 0-1.714-1.73zM7.254 22.821H3.7V11.368h3.559v11.453zM5.475 9.8a2.063 2.063 0 1 1 2.063-2.059A2.063 2.063 0 0 1 5.475 9.8zm15.112 13.021H17.03V17.25c0-1.329-.027-3.038-1.848-3.038-1.854 0-2.138 1.446-2.138 2.941v5.668H9.488V11.368H12.9v1.564h.048a3.747 3.747 0 0 1 3.37-1.848c3.6 0 4.27 2.373 4.27 5.459z" transform="translate(0 -2.25)"/>
</svg>
