<svg xmlns="http://www.w3.org/2000/svg" width="28" height="28" viewBox="0 0 28 28">
  <g id="Group_21008" data-name="Group 21008" transform="translate(-29.25)">
    <circle id="Ellipse_4553" data-name="Ellipse 4553" cx="14" cy="14" r="14" transform="translate(29.25)" fill="#f3e9fb"/>
    <g id="blogs_svg" data-name="blogs svg" transform="translate(25.802 -93.464)">
      <g id="Group_21040" data-name="Group 21040" transform="translate(8.85 106.938)">
        <path id="Path_11280" data-name="Path 11280" d="M11.24,260.411l-2.39-6.176,13.218-.815,2.768,6.153Z" transform="translate(-8.85 -253.42)" fill="#8626d5"/>
        <path id="Path_11281" data-name="Path 11281" d="M288.224,290.745l-1.669-3.965-.225.014,1.67,3.965Z" transform="translate(-275.918 -285.584)" fill="#fff"/>
        <path id="Path_11282" data-name="Path 11282" d="M252.924,293.015l-1.669-3.965-.225.014,1.67,3.965Z" transform="translate(-241.943 -287.773)" fill="#fff"/>
        <path id="Path_11283" data-name="Path 11283" d="M217.614,295.275l-1.669-3.965-.225.014,1.67,3.965Z" transform="translate(-207.958 -289.952)" fill="#fff"/>
        <path id="Path_11284" data-name="Path 11284" d="M182.314,297.545l-1.669-3.965-.225.014,1.67,3.965Z" transform="translate(-173.982 -292.141)" fill="#fff"/>
        <path id="Path_11285" data-name="Path 11285" d="M147,299.8l-1.669-3.965-.225.014,1.67,3.965Z" transform="translate(-139.997 -294.32)" fill="#fff"/>
        <path id="Path_11286" data-name="Path 11286" d="M111.694,302.075l-1.669-3.965-.225.014,1.67,3.965Z" transform="translate(-106.012 -296.508)" fill="#fff"/>
        <path id="Path_11287" data-name="Path 11287" d="M76.394,304.335l-1.669-3.965-.225.015,1.67,3.965Z" transform="translate(-72.037 -298.687)" fill="#fff"/>
      </g>
      <g id="Group_21041" data-name="Group 21041" transform="translate(9.097 104.026)">
        <path id="Path_11288" data-name="Path 11288" d="M18.235,185.619l-2.5-6.456,13.5-.833,2.89,6.432Z" transform="translate(-15.74 -178.33)" fill="#fff"/>
        <path id="Path_11289" data-name="Path 11289" d="M23.67,189.481,21.28,183.3,34.5,182.49l2.768,6.153Z" transform="translate(-21.081 -182.341)" fill="#8626d5"/>
        <path id="Path_11290" data-name="Path 11290" d="M303.534,217.585l-1.669-3.965-.225.015,1.67,3.965Z" transform="translate(-290.927 -212.355)" fill="#fff"/>
        <path id="Path_11291" data-name="Path 11291" d="M268.224,219.855l-1.669-3.965-.225.014,1.67,3.965Z" transform="translate(-256.94 -214.544)" fill="#fff"/>
        <path id="Path_11292" data-name="Path 11292" d="M232.924,222.115l-1.669-3.965-.225.015,1.67,3.965Z" transform="translate(-222.963 -216.723)" fill="#fff"/>
        <path id="Path_11293" data-name="Path 11293" d="M197.614,224.385l-1.669-3.965-.225.014,1.67,3.965Z" transform="translate(-188.976 -218.911)" fill="#fff"/>
        <path id="Path_11294" data-name="Path 11294" d="M162.314,226.655l-1.669-3.965-.225.014,1.67,3.965Z" transform="translate(-154.999 -221.1)" fill="#fff"/>
        <path id="Path_11295" data-name="Path 11295" d="M127,228.915l-1.669-3.965-.225.014,1.67,3.965Z" transform="translate(-121.012 -223.279)" fill="#fff"/>
        <path id="Path_11296" data-name="Path 11296" d="M91.694,231.185l-1.669-3.965-.225.014,1.67,3.965Z" transform="translate(-87.025 -225.468)" fill="#fff"/>
      </g>
      <g id="Group_21042" data-name="Group 21042" transform="translate(9.652 101)">
        <path id="Path_11297" data-name="Path 11297" d="M33.726,108.289l-2.5-6.456,13.5-.833,2.89,6.432Z" transform="translate(-31.23 -101)" fill="#fff"/>
        <path id="Path_11298" data-name="Path 11298" d="M39.16,112.141l-2.39-6.176,13.218-.815,2.768,6.153Z" transform="translate(-36.571 -105.001)" fill="#8626d5"/>
        <path id="Path_11299" data-name="Path 11299" d="M317.834,140.585l-1.669-3.965-.225.014,1.67,3.965Z" transform="translate(-305.271 -135.343)" fill="#fff"/>
        <path id="Path_11300" data-name="Path 11300" d="M282.534,142.845l-1.669-3.965-.225.014,1.67,3.965Z" transform="translate(-271.294 -137.522)" fill="#fff"/>
        <path id="Path_11301" data-name="Path 11301" d="M247.224,145.115l-1.669-3.965-.225.014,1.67,3.965Z" transform="translate(-237.307 -139.711)" fill="#fff"/>
        <path id="Path_11302" data-name="Path 11302" d="M211.924,147.375l-1.669-3.965-.225.015,1.67,3.965Z" transform="translate(-203.33 -141.89)" fill="#fff"/>
        <path id="Path_11303" data-name="Path 11303" d="M176.614,149.645l-1.669-3.965-.225.014,1.67,3.965Z" transform="translate(-169.343 -144.079)" fill="#fff"/>
        <path id="Path_11304" data-name="Path 11304" d="M141.3,151.9l-1.669-3.965-.225.015,1.67,3.965Z" transform="translate(-135.356 -146.258)" fill="#fff"/>
        <path id="Path_11305" data-name="Path 11305" d="M106,154.175l-1.669-3.965-.225.014,1.67,3.965Z" transform="translate(-101.379 -148.446)" fill="#fff"/>
      </g>
    </g>
  </g>
</svg>
