<?xml version="1.0" encoding="UTF-8"?>
<svg width="16px" height="18px" viewBox="0 0 16 18" version="1.1" xmlns="http://www.w3.org/2000/svg" xmlns:xlink="http://www.w3.org/1999/xlink">
    <!-- Generator: Sketch 64 (93537) - https://sketch.com -->
    <title>ic_content_copy_24px</title>
    <desc>Created with Sketch.</desc>
    <g id="Page-1" stroke="none" stroke-width="1" fill="none" fill-rule="evenodd">
        <g id="Group-8089" transform="translate(-4.000000, -3.000000)" fill="#FFFFFF" fill-rule="nonzero">
            <path d="M15.912,3.394 L6.524,3.394 C5.66058661,3.39619839 4.96119839,4.09558661 4.959,4.959 L4.959,15.912 L6.524,15.912 L6.524,4.959 L15.912,4.959 L15.912,3.394 Z M18.259,6.523 L9.653,6.523 C8.78958661,6.52519839 8.09019839,7.22458661 8.088,8.088 L8.088,19.041 C8.09019839,19.9044134 8.78958661,20.6038016 9.653,20.606 L18.259,20.606 C19.1224134,20.6038016 19.8218016,19.9044134 19.824,19.041 L19.824,8.088 C19.8218016,7.22458661 19.1224134,6.52519839 18.259,6.523 Z M18.259,19.041 L9.653,19.041 L9.653,8.088 L18.259,8.088 L18.259,19.041 Z" id="ic_content_copy_24px"></path>
        </g>
    </g>
</svg>