<svg xmlns="http://www.w3.org/2000/svg" width="24" height="24" viewBox="0 0 24 24">
    <g transform="translate(-1214 -4160)">
        <rect width="24" height="24" fill="#fff" rx="3" transform="translate(1214 4160)"/>
        <path fill="#2f2648" stroke="#2f2648" stroke-width="0.5px" d="M8.7 6.479a4.464 4.464 0 1 0 4.464 4.464A4.457 4.457 0 0 0 8.7 6.479zm0 7.366a2.9 2.9 0 1 1 2.9-2.9 2.907 2.907 0 0 1-2.9 2.9zM14.392 6.3a1.041 1.041 0 1 1-1.041-1.041A1.039 1.039 0 0 1 14.392 6.3zm2.957 1.057a5.153 5.153 0 0 0-1.406-3.648A5.187 5.187 0 0 0 12.294 2.3c-1.438-.082-5.746-.082-7.184 0a5.179 5.179 0 0 0-3.648 1.4A5.17 5.17 0 0 0 .056 7.35c-.082 1.438-.082 5.746 0 7.184a5.153 5.153 0 0 0 1.406 3.648 5.193 5.193 0 0 0 3.648 1.406c1.438.082 5.746.082 7.184 0a5.153 5.153 0 0 0 3.648-1.406 5.187 5.187 0 0 0 1.406-3.648c.082-1.434.082-5.743.001-7.181zm-1.857 8.722a2.938 2.938 0 0 1-1.655 1.655c-1.146.455-3.866.35-5.132.35s-3.99.1-5.132-.35a2.938 2.938 0 0 1-1.655-1.655c-.455-1.146-.35-3.866-.35-5.132s-.1-3.99.35-5.132a2.938 2.938 0 0 1 1.654-1.659c1.146-.455 3.866-.35 5.132-.35s3.99-.1 5.132.35a2.938 2.938 0 0 1 1.655 1.655c.455 1.146.35 3.866.35 5.132s.105 3.99-.349 5.133z" transform="translate(1217.539 4161.056)"/>
    </g>
</svg>
