<svg xmlns="http://www.w3.org/2000/svg" width="28" height="28" viewBox="0 0 28 28">
  <g id="Group_21012" data-name="Group 21012" transform="translate(-29.25)">
    <circle id="Ellipse_4552" data-name="Ellipse 4552" cx="14" cy="14" r="14" transform="translate(29.25)" fill="#8626d5"/>
    <path id="Group_2_Traced_" data-name="Group 2 (Traced)" d="M7.461.271A2.259,2.259,0,0,0,6.925,3.9c.684.761.587.843-1,.843-1.516,0-1.6-.063-1.039-.819a1.8,1.8,0,1,0-2.7,0c.44.523.388.755-.182.818a3.513,3.513,0,0,0-.953.217l-.261.1v7.174l.2.088c.483.215.375.211,5.369.2,4.371-.011,4.658-.016,4.815-.086.41-.185.519-.4.568-1.143.078-1.177.141-1.171,1.459.129,1.825,1.8,2.014,1.932,2.424,1.673l.166-.1V4.307l-.225-.05c-.55-.123-.73,0-2.324,1.572-.563.556-1.067,1.033-1.121,1.061-.236.122-.338-.1-.38-.852-.058-1.007-.249-1.2-1.272-1.279-.534-.042-.746-.118-.77-.276-.013-.087.056-.184.505-.712A2.244,2.244,0,0,0,9.6.3C9.428.2,9.255.083,9.218.053A1.847,1.847,0,0,0,8.508,0L7.864,0ZM6.805,7.5c1.3.752,1.4.818,1.481,1.01.14.335.03.433-1.453,1.291C4.964,10.88,4.962,10.878,4.962,8.647c0-1.43.019-1.6.191-1.749C5.377,6.7,5.529,6.76,6.805,7.5Z" transform="translate(34.969 7.401)" fill="#f3e9fb" fill-rule="evenodd"/>
  </g>
</svg>
