<svg xmlns="http://www.w3.org/2000/svg" width="24" height="24" viewBox="0 0 24 24">
  <g id="Group_13421" data-name="Group 13421" transform="translate(18686 -24126)">
    <g id="youtube" transform="translate(-18686 24126)">
      <path id="Path_22335" data-name="Path 22335" d="M1.214-511.847a1.684,1.684,0,0,0-1.12,1.125C0-510.431,0-510.3,0-499.935s0,10.5.094,10.787a1.683,1.683,0,0,0,1.134,1.13c.267.08.7.084,10.772.084,10.369,0,10.5,0,10.786-.094a1.683,1.683,0,0,0,1.13-1.135c.08-.267.084-.7.084-10.773s0-10.506-.084-10.773a1.683,1.683,0,0,0-1.13-1.135c-.291-.094-.413-.094-10.8-.089C2.025-511.932,1.463-511.927,1.214-511.847ZM14.6-505.139c2.888.1,3.5.216,4.045.722.45.422.637.98.764,2.3a38.088,38.088,0,0,1,0,4.266,4.089,4.089,0,0,1-.52,2.133,2.027,2.027,0,0,1-1.636.82,64.574,64.574,0,0,1-10.8-.047,1.941,1.941,0,0,1-1.692-1.594,21.707,21.707,0,0,1-.22-4.829c.117-1.927.258-2.475.755-3,.427-.45.83-.577,2.175-.68C9.127-505.176,12.427-505.218,14.6-505.139Z" transform="translate(0 511.933)" fill="#fff"/>
      <path id="Path_22336" data-name="Path 22336" d="M224-301.75v2.25l.225-.127c2.883-1.65,3.661-2.1,3.661-2.123s-.778-.473-3.661-2.123L224-304Z" transform="translate(-213.5 313.748)" fill="#fff"/>
    </g>
  </g>
</svg>
